<svg xmlns="http://www.w3.org/2000/svg" width="600" height="400" viewBox="0 0 600 400">
  <defs>
    <linearGradient id="grad1" x1="0%" y1="0%" x2="100%" y2="100%">
      <stop offset="0%" style="stop-color:#4285F4;stop-opacity:0.8" />
      <stop offset="100%" style="stop-color:#4285F4;stop-opacity:0.2" />
    </linearGradient>
    <linearGradient id="grad2" x1="0%" y1="0%" x2="100%" y2="100%">
      <stop offset="0%" style="stop-color:#34A853;stop-opacity:0.8" />
      <stop offset="100%" style="stop-color:#34A853;stop-opacity:0.2" />
    </linearGradient>
    <linearGradient id="grad3" x1="0%" y1="0%" x2="100%" y2="100%">
      <stop offset="0%" style="stop-color:#FBBC05;stop-opacity:0.8" />
      <stop offset="100%" style="stop-color:#FBBC05;stop-opacity:0.2" />
    </linearGradient>
    <linearGradient id="grad4" x1="0%" y1="0%" x2="100%" y2="100%">
      <stop offset="0%" style="stop-color:#EA4335;stop-opacity:0.8" />
      <stop offset="100%" style="stop-color:#EA4335;stop-opacity:0.2" />
    </linearGradient>
  </defs>
  
  <!-- Background Elements -->
  <rect x="50" y="50" width="500" height="300" rx="20" ry="20" fill="#1e293b" opacity="0.7" />
  
  <!-- Google Workspace Logo Elements -->
  <circle cx="150" cy="150" r="60" fill="url(#grad1)" opacity="0.8" />
  <circle cx="300" cy="150" r="60" fill="url(#grad2)" opacity="0.8" />
  <circle cx="450" cy="150" r="60" fill="url(#grad3)" opacity="0.8" />
  <circle cx="300" cy="250" r="60" fill="url(#grad4)" opacity="0.8" />
  
  <!-- Gmail Icon -->
  <rect x="120" y="120" width="60" height="60" rx="10" ry="10" fill="#FFFFFF" opacity="0.9" />
  <path d="M120,130 L150,150 L180,130 L180,170 L120,170 Z" fill="#EA4335" />
  
  <!-- Drive Icon -->
  <polygon points="300,110 270,170 330,170" fill="#FBBC05" opacity="0.9" />
  <polygon points="270,170 300,170 285,190" fill="#34A853" opacity="0.9" />
  <polygon points="300,170 330,170 315,190" fill="#4285F4" opacity="0.9" />
  
  <!-- Meet Icon -->
  <rect x="420" y="120" width="60" height="60" rx="10" ry="10" fill="#FFFFFF" opacity="0.9" />
  <circle cx="450" cy="150" r="15" fill="#4285F4" opacity="0.9" />
  <path d="M470,140 L470,160 L485,150 Z" fill="#4285F4" opacity="0.9" />
  
  <!-- Docs Icon -->
  <rect x="270" y="220" width="60" height="60" rx="10" ry="10" fill="#FFFFFF" opacity="0.9" />
  <rect x="280" y="235" width="40" height="5" fill="#4285F4" opacity="0.9" />
  <rect x="280" y="245" width="40" height="5" fill="#4285F4" opacity="0.9" />
  <rect x="280" y="255" width="30" height="5" fill="#4285F4" opacity="0.9" />
  
  <!-- Connecting Lines -->
  <line x1="180" y1="150" x2="240" y2="150" stroke="#FFFFFF" stroke-width="2" opacity="0.5" />
  <line x1="360" y1="150" x2="420" y2="150" stroke="#FFFFFF" stroke-width="2" opacity="0.5" />
  <line x1="300" y1="190" x2="300" y2="220" stroke="#FFFFFF" stroke-width="2" opacity="0.5" />
</svg>
