<svg xmlns="http://www.w3.org/2000/svg" viewBox="0 0 500 500" width="500" height="500">
  <style>
    .st0{fill:#0f172a;}
    .st1{fill:#00c8c8;}
    .st2{fill:#038387;}
    .st3{fill:#ffffff;}
    .st4{fill:rgba(255,255,255,0.2);}
    .st5{fill:rgba(3,131,135,0.3);}
    .gmail{fill:#EA4335;}
    .drive{fill:#0F9D58;}
    .docs{fill:#4285F4;}
    .meet{fill:#FBBC04;}
  </style>
  <rect class="st0" width="500" height="500"/>
  <circle class="st5" cx="250" cy="250" r="200"/>
  
  <!-- Google Logo -->
  <g transform="translate(150, 80) scale(1.2)">
    <path class="st3" d="M82.4,80.5c-10.6,0-19.6-3.6-26.2-10.7l10.4-10.4c4.5,4.5,10.3,6.8,16.2,6.8c12.6,0,23-10.3,23-23
      s-10.3-23-23-23c-12.6,0-23,10.3-23,23h-14c0-20.4,16.6-37,37-37s37,16.6,37,37S102.8,80.5,82.4,80.5z"/>
    <path class="gmail" d="M150,43.5h-14v-14h-14v14h-14v14h14v14h14v-14h14V43.5z"/>
  </g>
  
  <!-- Google Workspace Apps -->
  <g transform="translate(100, 200)">
    <!-- Gmail -->
    <g transform="translate(0, 0)">
      <rect class="gmail" x="0" y="0" width="60" height="45" rx="5"/>
      <rect class="st3" x="0" y="0" width="60" height="45" rx="5" fill="none" stroke="#ffffff" stroke-width="2"/>
      <path class="st3" d="M5,5l25,20l25-20v35H5V5z"/>
    </g>
    
    <!-- Drive -->
    <g transform="translate(100, 0)">
      <rect class="drive" x="0" y="0" width="60" height="45" rx="5"/>
      <rect class="st3" x="0" y="0" width="60" height="45" rx="5" fill="none" stroke="#ffffff" stroke-width="2"/>
      <path class="st3" d="M30,5l20,35H10L30,5z"/>
    </g>
    
    <!-- Docs -->
    <g transform="translate(200, 0)">
      <rect class="docs" x="0" y="0" width="60" height="45" rx="5"/>
      <rect class="st3" x="0" y="0" width="60" height="45" rx="5" fill="none" stroke="#ffffff" stroke-width="2"/>
      <rect class="st3" x="15" y="10" width="30" height="5" rx="2"/>
      <rect class="st3" x="15" y="20" width="30" height="5" rx="2"/>
      <rect class="st3" x="15" y="30" width="30" height="5" rx="2"/>
    </g>
  </g>
  
  <g transform="translate(100, 280)">
    <!-- Meet -->
    <g transform="translate(0, 0)">
      <rect class="meet" x="0" y="0" width="60" height="45" rx="5"/>
      <rect class="st3" x="0" y="0" width="60" height="45" rx="5" fill="none" stroke="#ffffff" stroke-width="2"/>
      <rect class="st3" x="10" y="15" width="40" height="15" rx="2"/>
      <circle class="st3" cx="30" cy="22.5" r="5"/>
    </g>
    
    <!-- Calendar -->
    <g transform="translate(100, 0)">
      <rect class="st2" x="0" y="0" width="60" height="45" rx="5"/>
      <rect class="st3" x="0" y="0" width="60" height="45" rx="5" fill="none" stroke="#ffffff" stroke-width="2"/>
      <rect class="st3" x="10" y="5" width="40" height="10" rx="2"/>
      <rect class="st3" x="15" y="20" width="10" height="10" rx="1"/>
      <rect class="st3" x="35" y="20" width="10" height="10" rx="1"/>
    </g>
    
    <!-- Chat -->
    <g transform="translate(200, 0)">
      <rect class="st1" x="0" y="0" width="60" height="45" rx="5"/>
      <rect class="st3" x="0" y="0" width="60" height="45" rx="5" fill="none" stroke="#ffffff" stroke-width="2"/>
      <path class="st3" d="M10,15h40v20H35l-5,5v-5H10V15z"/>
    </g>
  </g>
  
  <!-- Connection Lines -->
  <g stroke="#00c8c8" stroke-width="2">
    <line x1="130" y1="245" x2="200" y2="245"/>
    <line x1="260" y1="245" x2="330" y2="245"/>
    <line x1="130" y1="325" x2="200" y2="325"/>
    <line x1="260" y1="325" x2="330" y2="325"/>
    <line x1="130" y1="245" x2="130" y2="325"/>
    <line x1="230" y1="245" x2="230" y2="325"/>
    <line x1="330" y1="245" x2="330" y2="325"/>
  </g>
</svg>
