<svg xmlns="http://www.w3.org/2000/svg" width="600" height="400" viewBox="0 0 600 400">
  <defs>
    <linearGradient id="grad1" x1="0%" y1="0%" x2="100%" y2="100%">
      <stop offset="0%" style="stop-color:#038387;stop-opacity:0.8" />
      <stop offset="100%" style="stop-color:#038387;stop-opacity:0.2" />
    </linearGradient>
    <linearGradient id="grad2" x1="0%" y1="0%" x2="100%" y2="100%">
      <stop offset="0%" style="stop-color:#3B82F6;stop-opacity:0.8" />
      <stop offset="100%" style="stop-color:#3B82F6;stop-opacity:0.2" />
    </linearGradient>
  </defs>
  
  <!-- Background Elements -->
  <rect x="50" y="50" width="500" height="300" rx="20" ry="20" fill="#1e293b" opacity="0.7" />
  <circle cx="150" cy="100" r="80" fill="url(#grad1)" opacity="0.6" />
  <circle cx="450" cy="300" r="100" fill="url(#grad2)" opacity="0.4" />
  
  <!-- Digital Elements -->
  <g stroke="#038387" stroke-width="2" opacity="0.8">
    <!-- Circuit Lines -->
    <line x1="50" y1="150" x2="200" y2="150" />
    <line x1="200" y1="150" x2="200" y2="250" />
    <line x1="200" y1="250" x2="350" y2="250" />
    <line x1="350" y1="250" x2="350" y2="100" />
    <line x1="350" y1="100" x2="500" y2="100" />
    
    <!-- Connection Points -->
    <circle cx="200" cy="150" r="5" fill="#038387" />
    <circle cx="200" cy="250" r="5" fill="#038387" />
    <circle cx="350" cy="250" r="5" fill="#038387" />
    <circle cx="350" cy="100" r="5" fill="#038387" />
  </g>
  
  <!-- Website Elements -->
  <rect x="100" y="120" width="180" height="160" rx="10" ry="10" fill="#0f172a" stroke="#038387" stroke-width="2" />
  <rect x="120" y="140" width="140" height="20" rx="5" ry="5" fill="#038387" opacity="0.7" />
  <rect x="120" y="170" width="140" height="10" rx="5" ry="5" fill="#ffffff" opacity="0.3" />
  <rect x="120" y="190" width="140" height="10" rx="5" ry="5" fill="#ffffff" opacity="0.3" />
  <rect x="120" y="210" width="140" height="10" rx="5" ry="5" fill="#ffffff" opacity="0.3" />
  <rect x="120" y="240" width="60" height="20" rx="5" ry="5" fill="#038387" opacity="0.7" />
  
  <!-- CRM/ERP Elements -->
  <rect x="320" y="120" width="180" height="160" rx="10" ry="10" fill="#0f172a" stroke="#3B82F6" stroke-width="2" />
  <rect x="340" y="140" width="140" height="20" rx="5" ry="5" fill="#3B82F6" opacity="0.7" />
  <rect x="340" y="170" width="60" height="60" rx="5" ry="5" fill="#ffffff" opacity="0.2" />
  <rect x="410" y="170" width="30" height="60" rx="5" ry="5" fill="#ffffff" opacity="0.2" />
  <rect x="450" y="170" width="30" height="60" rx="5" ry="5" fill="#ffffff" opacity="0.2" />
  <rect x="340" y="240" width="140" height="20" rx="5" ry="5" fill="#3B82F6" opacity="0.7" />
  
  <!-- Decorative Elements -->
  <circle cx="100" cy="300" r="15" fill="#f59e0b" opacity="0.6" />
  <circle cx="500" cy="100" r="15" fill="#f59e0b" opacity="0.6" />
  <circle cx="300" cy="50" r="15" fill="#f59e0b" opacity="0.6" />
</svg>
