<svg xmlns="http://www.w3.org/2000/svg" viewBox="0 0 500 500" width="500" height="500">
  <style>
    .st0{fill:#0f172a;}
    .st1{fill:#00c8c8;}
    .st2{fill:#038387;}
    .st3{fill:#ffffff;}
    .st4{fill:rgba(255,255,255,0.2);}
    .st5{fill:rgba(3,131,135,0.3);}
  </style>
  <rect class="st0" width="500" height="500"/>
  <circle class="st5" cx="250" cy="250" r="200"/>
  
  <!-- Robot Head -->
  <g transform="translate(175, 100)">
    <rect class="st2" x="0" y="0" width="150" height="120" rx="20"/>
    <rect class="st0" x="5" y="5" width="140" height="110" rx="15"/>
    
    <!-- Eyes -->
    <circle class="st1" cx="50" cy="40" r="15"/>
    <circle class="st1" cx="100" cy="40" r="15"/>
    <circle class="st3" cx="50" cy="40" r="5"/>
    <circle class="st3" cx="100" cy="40" r="5"/>
    
    <!-- Mouth -->
    <rect class="st1" x="40" y="80" width="70" height="10" rx="5"/>
    
    <!-- Antenna -->
    <rect class="st2" x="70" y="-20" width="10" height="20"/>
    <circle class="st1" cx="75" cy="-25" r="10"/>
  </g>
  
  <!-- Circuit Board Background -->
  <g stroke="#00c8c8" stroke-width="2" fill="none">
    <line x1="100" y1="250" x2="400" y2="250"/>
    <line x1="150" y1="200" x2="150" y2="300"/>
    <line x1="250" y1="200" x2="250" y2="300"/>
    <line x1="350" y1="200" x2="350" y2="300"/>
    
    <circle cx="150" cy="250" r="5" fill="#00c8c8"/>
    <circle cx="250" cy="250" r="5" fill="#00c8c8"/>
    <circle cx="350" cy="250" r="5" fill="#00c8c8"/>
  </g>
  
  <!-- AI Brain -->
  <g transform="translate(150, 300)">
    <path class="st2" d="M0,0 L200,0 L200,100 L0,100 Z"/>
    <path class="st1" d="M20,20 L50,20 L50,50 L20,50 Z"/>
    <path class="st1" d="M70,20 L100,20 L100,50 L70,50 Z"/>
    <path class="st1" d="M120,20 L150,20 L150,50 L120,50 Z"/>
    <path class="st1" d="M170,20 L180,20 L180,50 L170,50 Z"/>
    
    <path class="st1" d="M20,70 L30,70 L30,80 L20,80 Z"/>
    <path class="st1" d="M50,70 L80,70 L80,80 L50,80 Z"/>
    <path class="st1" d="M100,70 L130,70 L130,80 L100,80 Z"/>
    <path class="st1" d="M150,70 L180,70 L180,80 L150,80 Z"/>
    
    <!-- Connection Lines -->
    <line x1="35" y1="50" x2="35" y2="70" stroke="#00c8c8" stroke-width="2"/>
    <line x1="85" y1="50" x2="65" y2="70" stroke="#00c8c8" stroke-width="2"/>
    <line x1="135" y1="50" x2="115" y2="70" stroke="#00c8c8" stroke-width="2"/>
    <line x1="175" y1="50" x2="165" y2="70" stroke="#00c8c8" stroke-width="2"/>
  </g>
  
  <!-- Binary Code -->
  <g fill="#ffffff" font-family="monospace" font-size="10">
    <text x="120" y="280">10110101</text>
    <text x="200" y="280">01001010</text>
    <text x="280" y="280">11010011</text>
    <text x="360" y="280">00101101</text>
  </g>
</svg>
