<?xml version="1.0" encoding="UTF-8"?>
<svg width="1440" height="800" viewBox="0 0 1440 800" fill="none" xmlns="http://www.w3.org/2000/svg">
  <g opacity="0.5">
    <circle cx="100" cy="100" r="10" fill="#673DE6" opacity="0.2"/>
    <circle cx="300" cy="200" r="8" fill="#673DE6" opacity="0.2"/>
    <circle cx="500" cy="150" r="12" fill="#673DE6" opacity="0.2"/>
    <circle cx="700" cy="300" r="9" fill="#673DE6" opacity="0.2"/>
    <circle cx="900" cy="250" r="11" fill="#673DE6" opacity="0.2"/>
    <circle cx="1100" cy="400" r="10" fill="#673DE6" opacity="0.2"/>
    <circle cx="1300" cy="350" r="8" fill="#673DE6" opacity="0.2"/>
    <circle cx="200" cy="450" r="12" fill="#673DE6" opacity="0.2"/>
    <circle cx="400" cy="500" r="9" fill="#673DE6" opacity="0.2"/>
    <circle cx="600" cy="550" r="11" fill="#673DE6" opacity="0.2"/>
    <circle cx="800" cy="600" r="10" fill="#673DE6" opacity="0.2"/>
    <circle cx="1000" cy="650" r="8" fill="#673DE6" opacity="0.2"/>
    <circle cx="1200" cy="700" r="12" fill="#673DE6" opacity="0.2"/>
    <circle cx="1400" cy="750" r="9" fill="#673DE6" opacity="0.2"/>
    <circle cx="150" cy="300" r="5" fill="#673DE6" opacity="0.2"/>
    <circle cx="350" cy="350" r="6" fill="#673DE6" opacity="0.2"/>
    <circle cx="550" cy="400" r="4" fill="#673DE6" opacity="0.2"/>
    <circle cx="750" cy="450" r="7" fill="#673DE6" opacity="0.2"/>
    <circle cx="950" cy="500" r="5" fill="#673DE6" opacity="0.2"/>
    <circle cx="1150" cy="550" r="6" fill="#673DE6" opacity="0.2"/>
    <circle cx="1350" cy="600" r="4" fill="#673DE6" opacity="0.2"/>
    <circle cx="250" cy="650" r="7" fill="#673DE6" opacity="0.2"/>
    <circle cx="450" cy="700" r="5" fill="#673DE6" opacity="0.2"/>
    <circle cx="650" cy="750" r="6" fill="#673DE6" opacity="0.2"/>
    <circle cx="850" cy="100" r="4" fill="#673DE6" opacity="0.2"/>
    <circle cx="1050" cy="150" r="7" fill="#673DE6" opacity="0.2"/>
    <circle cx="1250" cy="200" r="5" fill="#673DE6" opacity="0.2"/>
  </g>
  <path d="M0 0L1440 0L1440 800L0 800L0 0Z" fill="url(#paint0_linear)" fill-opacity="0.05"/>
  <defs>
    <linearGradient id="paint0_linear" x1="0" y1="0" x2="1440" y2="800" gradientUnits="userSpaceOnUse">
      <stop stop-color="#673DE6"/>
      <stop offset="1" stop-color="#2F1C6A"/>
    </linearGradient>
  </defs>
</svg>
