<?xml version="1.0" encoding="UTF-8"?>
<svg width="400" height="300" viewBox="0 0 400 300" fill="none" xmlns="http://www.w3.org/2000/svg">
  <rect width="400" height="300" fill="#121212"/>
  <path d="M200 50C117.157 50 50 117.157 50 200C50 282.843 117.157 350 200 350C282.843 350 350 282.843 350 200C350 117.157 282.843 50 200 50Z" fill="#1E1E1E"/>
  <path d="M200 75C130.964 75 75 130.964 75 200C75 269.036 130.964 325 200 325C269.036 325 325 269.036 325 200C325 130.964 269.036 75 200 75Z" stroke="#038387" stroke-width="2"/>
  <path d="M125 200L175 150M175 150V175M175 150H150" stroke="#038387" stroke-width="4" stroke-linecap="round" stroke-linejoin="round"/>
  <path d="M275 200L225 250M225 250V225M225 250H250" stroke="#038387" stroke-width="4" stroke-linecap="round" stroke-linejoin="round"/>
  <path d="M200 125V275" stroke="#038387" stroke-width="4" stroke-linecap="round" stroke-dasharray="8 12"/>
  <path d="M125 200H275" stroke="#038387" stroke-width="4" stroke-linecap="round" stroke-dasharray="8 12"/>
  <path d="M150 150L250 250" stroke="#FF5252" stroke-width="4" stroke-linecap="round"/>
  <path d="M250 150L150 250" stroke="#FF5252" stroke-width="4" stroke-linecap="round"/>
  <text x="200" y="290" font-family="Arial, sans-serif" font-size="14" fill="#FFFFFF" text-anchor="middle">الصورة غير متوفرة حاليًا</text>
  <text x="200" y="310" font-family="Arial, sans-serif" font-size="12" fill="#038387" text-anchor="middle">idiibi</text>
</svg>
