<?xml version="1.0" encoding="UTF-8"?>
<svg width="600" height="400" viewBox="0 0 600 400" fill="none" xmlns="http://www.w3.org/2000/svg">
  <!-- Background -->
  <rect width="600" height="400" rx="20" fill="#0F172A" opacity="0.1"/>
  
  <!-- Grid Pattern -->
  <path d="M0 50H600M0 100H600M0 150H600M0 200H600M0 250H600M0 300H600M0 350H600" stroke="#038387" stroke-width="0.5" stroke-dasharray="5 5" opacity="0.3"/>
  <path d="M50 0V400M100 0V400M150 0V400M200 0V400M250 0V400M300 0V400M350 0V400M400 0V400M450 0V400M500 0V400M550 0V400" stroke="#038387" stroke-width="0.5" stroke-dasharray="5 5" opacity="0.3"/>
  
  <!-- Portfolio Items -->
  <!-- Item 1 -->
  <rect x="100" y="100" width="120" height="90" rx="8" fill="#038387" opacity="0.8"/>
  <rect x="110" y="110" width="100" height="60" rx="4" fill="white" opacity="0.9"/>
  <rect x="120" y="180" width="80" height="5" rx="2" fill="white" opacity="0.7"/>
  
  <!-- Item 2 -->
  <rect x="240" y="100" width="120" height="90" rx="8" fill="#5025D1" opacity="0.8"/>
  <rect x="250" y="110" width="100" height="60" rx="4" fill="white" opacity="0.9"/>
  <rect x="260" y="180" width="80" height="5" rx="2" fill="white" opacity="0.7"/>
  
  <!-- Item 3 -->
  <rect x="380" y="100" width="120" height="90" rx="8" fill="#4285F4" opacity="0.8"/>
  <rect x="390" y="110" width="100" height="60" rx="4" fill="white" opacity="0.9"/>
  <rect x="400" y="180" width="80" height="5" rx="2" fill="white" opacity="0.7"/>
  
  <!-- Item 4 -->
  <rect x="100" y="210" width="120" height="90" rx="8" fill="#21759B" opacity="0.8"/>
  <rect x="110" y="220" width="100" height="60" rx="4" fill="white" opacity="0.9"/>
  <rect x="120" y="290" width="80" height="5" rx="2" fill="white" opacity="0.7"/>
  
  <!-- Item 5 -->
  <rect x="240" y="210" width="120" height="90" rx="8" fill="#F44336" opacity="0.8"/>
  <rect x="250" y="220" width="100" height="60" rx="4" fill="white" opacity="0.9"/>
  <rect x="260" y="290" width="80" height="5" rx="2" fill="white" opacity="0.7"/>
  
  <!-- Item 6 -->
  <rect x="380" y="210" width="120" height="90" rx="8" fill="#FF9800" opacity="0.8"/>
  <rect x="390" y="220" width="100" height="60" rx="4" fill="white" opacity="0.9"/>
  <rect x="400" y="290" width="80" height="5" rx="2" fill="white" opacity="0.7"/>
  
  <!-- Decorative Elements -->
  <circle cx="150" cy="50" r="30" fill="#038387" opacity="0.1"/>
  <circle cx="450" cy="350" r="40" fill="#5025D1" opacity="0.1"/>
  <circle cx="350" cy="150" r="20" fill="#4285F4" opacity="0.1"/>
  
  <!-- Cursor -->
  <g>
    <path d="M320 170L340 190L320 210" stroke="#038387" stroke-width="3" stroke-linecap="round" stroke-linejoin="round"/>
    <circle cx="330" cy="190" r="30" stroke="#038387" stroke-width="2" stroke-dasharray="5 5" opacity="0.5"/>
  </g>
  
  <!-- Portfolio Text -->
  <g opacity="0.9">
    <rect x="200" y="30" width="200" height="40" rx="20" fill="#038387" opacity="0.2"/>
    <text x="300" y="55" font-family="Arial, sans-serif" font-size="18" font-weight="bold" fill="#038387" text-anchor="middle">PORTFOLIO</text>
  </g>
</svg>
