<?xml version="1.0" encoding="UTF-8"?>
<svg xmlns="http://www.w3.org/2000/svg" viewBox="0 0 448 512" fill="#ffffff">
  <path d="M331.5 235.7c2.2 .9 4.5 1.3 6.8 1.3 10.3 0 18.7-8.4 18.7-18.7 0-7.2-4.1-13.8-10.6-16.9-15.6-7.8-32.1-12.4-48.9-13.7l0 0c-2.4-.2-4.8-.3-7.2-.3-30.2 0-58.7 14.2-76.9 38.3-18.3 24.1-25 55.4-18.1 84.9 .9 4 1.9 7.9 3.2 11.7 3.6 10.7 15.1 16.5 25.8 12.9 10.7-3.6 16.5-15.1 12.9-25.8-.8-2.5-1.5-5.1-2.1-7.7-4.5-19.2-.3-39.5 11.4-54.6 11.7-15.1 29.9-23.8 49-23.8 1.6 0 3.2 .1 4.8 .2 10.9 .9 21.5 3.9 31.2 8.9zm-6.9 123.4c-3.7 10.6-15.3 16.2-25.9 12.5-10.6-3.7-16.2-15.3-12.5-25.9 4.3-12.3 6.5-25.2 6.5-38.4 0-64.7-52.6-117.3-117.3-117.3s-117.3 52.6-117.3 117.3c0 13.2 2.2 26.1 6.5 38.4 3.7 10.6-1.9 22.2-12.5 25.9-10.6 3.7-22.2-1.9-25.9-12.5-5.8-16.5-8.7-33.8-8.7-51.8C18.3 183.3 107.6 94 218.3 94s200 89.3 200 200c0 17.9-2.9 35.3-8.7 51.8zm-110.3 65.5c-3.7 10.6-15.3 16.2-25.9 12.5-10.6-3.7-16.2-15.3-12.5-25.9 1.4-4.1 2.1-8.4 2.1-12.8 0-21.6-17.6-39.2-39.2-39.2s-39.2 17.6-39.2 39.2c0 4.4 .7 8.7 2.1 12.8 3.7 10.6-1.9 22.2-12.5 25.9-10.6 3.7-22.2-1.9-25.9-12.5-3.5-10.1-5.3-20.7-5.3-31.4 0-53.9 43.8-97.7 97.7-97.7s97.7 43.8 97.7 97.7c0 10.6-1.8 21.2-5.3 31.4z"/>
</svg>
